<svg width="171" height="27" viewBox="0 0 171 27" fill="none" xmlns="http://www.w3.org/2000/svg">
<path d="M144.548 25.704V7.704H147.248L147.392 10.224C147.944 9.264 148.652 8.532 149.516 8.028C150.38 7.524 151.388 7.272 152.54 7.272C153.98 7.272 155.204 7.608 156.212 8.28C157.244 8.952 157.988 9.972 158.444 11.34C158.948 10.02 159.68 9.012 160.64 8.316C161.624 7.62 162.788 7.272 164.132 7.272C166.148 7.272 167.732 7.944 168.884 9.288C170.06 10.632 170.636 12.672 170.612 15.408V25.704H167.732V16.488C167.732 14.712 167.54 13.356 167.156 12.42C166.796 11.484 166.304 10.848 165.68 10.512C165.056 10.152 164.336 9.972 163.52 9.972C162.104 9.972 161 10.536 160.208 11.664C159.416 12.768 159.02 14.34 159.02 16.38V25.704H156.14V16.488C156.14 14.712 155.948 13.356 155.564 12.42C155.204 11.484 154.7 10.848 154.052 10.512C153.428 10.152 152.708 9.972 151.892 9.972C150.5 9.972 149.408 10.536 148.616 11.664C147.824 12.768 147.428 14.34 147.428 16.38V25.704H144.548Z" fill="white"/>
<path d="M133.059 25.704V5.652C133.059 3.78 133.491 2.376 134.355 1.44C135.243 0.48 136.587 0 138.387 0C138.867 0 139.407 0.0840001 140.007 0.252001C140.607 0.42 141.243 0.66 141.915 0.972L140.835 3.24C140.283 3.024 139.815 2.856 139.431 2.736C139.047 2.616 138.723 2.556 138.459 2.556C137.619 2.556 136.983 2.832 136.551 3.384C136.143 3.912 135.939 4.74 135.939 5.868V25.704H133.059ZM129.747 10.188V7.704H141.159V10.188H129.747Z" fill="white"/>
<path d="M124.994 26.208C124.442 26.208 123.962 26.016 123.554 25.632C123.17 25.224 122.978 24.756 122.978 24.228C122.978 23.676 123.17 23.208 123.554 22.824C123.962 22.416 124.442 22.212 124.994 22.212C125.546 22.212 126.014 22.416 126.398 22.824C126.782 23.208 126.974 23.676 126.974 24.228C126.974 24.756 126.782 25.224 126.398 25.632C126.014 26.016 125.546 26.208 124.994 26.208Z" fill="white"/>
<path d="M116.933 26.136C115.181 26.136 113.825 25.68 112.865 24.768C111.905 23.856 111.425 22.572 111.425 20.916V2.08801H114.305V20.628C114.305 21.54 114.545 22.248 115.025 22.752C115.529 23.232 116.225 23.472 117.113 23.472C117.401 23.472 117.677 23.436 117.941 23.364C118.229 23.268 118.601 23.052 119.057 22.716L120.173 25.056C119.549 25.464 118.985 25.74 118.481 25.884C117.977 26.052 117.461 26.136 116.933 26.136ZM108.293 10.26V7.70401H119.705V10.26H108.293Z" fill="#8B5CF6" fill-opacity="0.901961"/>
<path d="M99.6952 26.136C98.3752 26.136 97.2232 25.944 96.2392 25.56C95.2552 25.152 94.4272 24.624 93.7552 23.976C93.1072 23.328 92.6392 22.62 92.3512 21.852L94.8712 20.808C95.2792 21.624 95.8912 22.284 96.7072 22.788C97.5232 23.292 98.4232 23.544 99.4072 23.544C100.535 23.544 101.483 23.328 102.251 22.896C103.019 22.44 103.403 21.804 103.403 20.988C103.403 20.244 103.115 19.644 102.539 19.188C101.987 18.732 101.159 18.36 100.055 18.072L98.3272 17.604C96.6952 17.172 95.4232 16.524 94.5112 15.66C93.5992 14.772 93.1432 13.776 93.1432 12.672C93.1432 10.968 93.6952 9.648 94.7992 8.712C95.9272 7.752 97.5952 7.272 99.8032 7.272C100.859 7.272 101.819 7.428 102.683 7.74C103.547 8.052 104.291 8.496 104.915 9.072C105.539 9.624 105.995 10.284 106.283 11.052L103.763 12.168C103.451 11.352 102.935 10.764 102.215 10.404C101.495 10.044 100.619 9.864 99.5872 9.864C98.4832 9.864 97.6192 10.104 96.9952 10.584C96.3712 11.04 96.0592 11.688 96.0592 12.528C96.0592 13.008 96.3112 13.464 96.8152 13.896C97.3432 14.304 98.1112 14.64 99.1192 14.904L100.919 15.372C102.095 15.66 103.079 16.092 103.871 16.668C104.663 17.22 105.263 17.856 105.671 18.576C106.079 19.296 106.283 20.064 106.283 20.88C106.283 21.96 105.995 22.896 105.419 23.688C104.843 24.48 104.063 25.092 103.079 25.524C102.095 25.932 100.967 26.136 99.6952 26.136Z" fill="#8B5CF6" fill-opacity="0.901961"/>
<path d="M86.1317 25.704L85.9877 22.752V16.2C85.9877 14.784 85.8317 13.62 85.5197 12.708C85.2077 11.772 84.7157 11.064 84.0437 10.584C83.3717 10.104 82.4957 9.864 81.4157 9.864C80.4317 9.864 79.5797 10.068 78.8597 10.476C78.1637 10.86 77.5877 11.484 77.1317 12.348L74.5397 11.34C74.9957 10.5 75.5477 9.78 76.1957 9.18C76.8437 8.556 77.5997 8.088 78.4637 7.776C79.3277 7.44 80.3117 7.272 81.4157 7.272C83.0957 7.272 84.4757 7.608 85.5557 8.28C86.6597 8.928 87.4877 9.9 88.0397 11.196C88.5917 12.468 88.8557 14.052 88.8317 15.948L88.7957 25.704H86.1317ZM80.7317 26.136C78.6197 26.136 76.9637 25.656 75.7637 24.696C74.5877 23.712 73.9997 22.356 73.9997 20.628C73.9997 18.804 74.5997 17.412 75.7997 16.452C77.0237 15.468 78.7277 14.976 80.9117 14.976H86.0597V17.388H81.5597C79.8797 17.388 78.6797 17.664 77.9597 18.216C77.2637 18.768 76.9157 19.56 76.9157 20.592C76.9157 21.528 77.2637 22.272 77.9597 22.824C78.6557 23.352 79.6277 23.616 80.8757 23.616C81.9077 23.616 82.8077 23.4 83.5757 22.968C84.3437 22.512 84.9317 21.876 85.3397 21.06C85.7717 20.22 85.9877 19.236 85.9877 18.108H87.2117C87.2117 20.556 86.6597 22.512 85.5557 23.976C84.4517 25.416 82.8437 26.136 80.7317 26.136Z" fill="#8B5CF6" fill-opacity="0.901961"/>
<path d="M60.5464 26.136C58.1464 26.136 56.0224 25.584 54.1744 24.48C52.3264 23.352 50.8744 21.816 49.8184 19.872C48.7624 17.904 48.2344 15.648 48.2344 13.104C48.2344 10.56 48.7504 8.316 49.7824 6.372C50.8384 4.404 52.2784 2.868 54.1024 1.764C55.9504 0.635998 58.0624 0.0719986 60.4384 0.0719986C61.9504 0.0719986 63.4024 0.347998 64.7944 0.899998C66.1864 1.428 67.4344 2.184 68.5384 3.168C69.6424 4.128 70.4944 5.244 71.0944 6.516L68.4664 7.848C67.9864 6.84 67.3264 5.964 66.4864 5.22C65.6464 4.476 64.7104 3.9 63.6784 3.492C62.6464 3.06 61.5664 2.844 60.4384 2.844C58.6864 2.844 57.1144 3.288 55.7224 4.176C54.3304 5.04 53.2384 6.24 52.4464 7.776C51.6784 9.312 51.2944 11.088 51.2944 13.104C51.2944 15.12 51.6904 16.908 52.4824 18.468C53.2744 20.028 54.3664 21.252 55.7584 22.14C57.1744 23.004 58.7704 23.436 60.5464 23.436C61.6984 23.436 62.7904 23.208 63.8224 22.752C64.8544 22.272 65.7784 21.624 66.5944 20.808C67.4344 19.992 68.0944 19.056 68.5744 18L71.2384 19.332C70.6144 20.652 69.7504 21.828 68.6464 22.86C67.5664 23.892 66.3184 24.696 64.9024 25.272C63.5104 25.848 62.0584 26.136 60.5464 26.136Z" fill="#8B5CF6" fill-opacity="0.901961"/>
<path d="M36.1716 26.136C34.4196 26.136 32.8596 25.74 31.4916 24.948C30.1476 24.132 29.0916 23.016 28.3236 21.6C27.5556 20.184 27.1716 18.552 27.1716 16.704C27.1716 14.856 27.5436 13.224 28.2876 11.808C29.0556 10.392 30.1116 9.288 31.4556 8.496C32.8236 7.68 34.3716 7.272 36.0996 7.272C37.8756 7.272 39.4356 7.68 40.7796 8.496C42.1476 9.288 43.2036 10.392 43.9476 11.808C44.7156 13.224 45.0996 14.856 45.0996 16.704C45.0996 18.552 44.7156 20.184 43.9476 21.6C43.2036 23.016 42.1596 24.132 40.8156 24.948C39.4716 25.74 37.9236 26.136 36.1716 26.136ZM36.1716 23.472C37.3716 23.472 38.4156 23.184 39.3036 22.608C40.1916 22.032 40.8876 21.24 41.3916 20.232C41.9196 19.224 42.1836 18.048 42.1836 16.704C42.1836 15.36 41.9196 14.184 41.3916 13.176C40.8876 12.168 40.1796 11.376 39.2676 10.8C38.3556 10.224 37.2996 9.936 36.0996 9.936C34.9236 9.936 33.8796 10.224 32.9676 10.8C32.0796 11.376 31.3716 12.168 30.8436 13.176C30.3396 14.184 30.0876 15.36 30.0876 16.704C30.0876 18.024 30.3396 19.2 30.8436 20.232C31.3716 21.24 32.0916 22.032 33.0036 22.608C33.9396 23.184 34.9956 23.472 36.1716 23.472Z" fill="white"/>
<path d="M13.104 26.136C10.536 26.136 8.268 25.584 6.3 24.48C4.332 23.352 2.784 21.816 1.656 19.872C0.552 17.904 0 15.66 0 13.14C0 10.572 0.552 8.316 1.656 6.372C2.784 4.404 4.332 2.868 6.3 1.764C8.268 0.635998 10.536 0.0719986 13.104 0.0719986C14.448 0.0719986 15.756 0.299998 17.028 0.755998C18.3 1.188 19.464 1.788 20.52 2.556C21.576 3.324 22.428 4.2 23.076 5.184L20.664 6.84C20.184 6.072 19.536 5.388 18.72 4.788C17.904 4.164 17.004 3.684 16.02 3.348C15.06 3.012 14.088 2.844 13.104 2.844C11.16 2.844 9.432 3.288 7.92 4.176C6.408 5.04 5.22 6.24 4.356 7.776C3.492 9.312 3.06 11.1 3.06 13.14C3.06 15.108 3.48 16.872 4.32 18.432C5.184 19.968 6.372 21.18 7.884 22.068C9.42 22.956 11.16 23.4 13.104 23.4C14.736 23.4 16.176 23.064 17.424 22.392C18.696 21.696 19.692 20.748 20.412 19.548C21.132 18.324 21.492 16.92 21.492 15.336L24.408 15.12C24.408 17.328 23.928 19.26 22.968 20.916C22.008 22.548 20.676 23.832 18.972 24.768C17.268 25.68 15.312 26.136 13.104 26.136ZM15.3 15.48V12.852H24.408V15.228L22.968 15.48H15.3Z" fill="white"/>
</svg>
