<svg width="32" height="32" viewBox="0 0 32 32" xmlns="http://www.w3.org/2000/svg">
  <rect width="32" height="32" rx="7" fill="#8B5CF6"/>
  <g transform="translate(6.65 5.95) scale(0.766)" fill="#ffffff">
    <path d="M13.104 26.136C10.536 26.136 8.268 25.584 6.3 24.48C4.332 23.352 2.784 21.816 1.656 19.872C0.552 17.904 0 15.66 0 13.14C0 10.572 0.552 8.316 1.656 6.372C2.784 4.404 4.332 2.868 6.3 1.764C8.268 0.635998 10.536 0.0719986 13.104 0.0719986C14.448 0.0719986 15.756 0.299998 17.028 0.755998C18.3 1.188 19.464 1.788 20.52 2.556C21.576 3.324 22.428 4.2 23.076 5.184L20.664 6.84C20.184 6.072 19.536 5.388 18.72 4.788C17.904 4.164 17.004 3.684 16.02 3.348C15.06 3.012 14.088 2.844 13.104 2.844C11.16 2.844 9.432 3.288 7.92 4.176C6.408 5.04 5.22 6.24 4.356 7.776C3.492 9.312 3.06 11.1 3.06 13.14C3.06 15.108 3.48 16.872 4.32 18.432C5.184 19.968 6.372 21.18 7.884 22.068C9.42 22.956 11.16 23.4 13.104 23.4C14.736 23.4 16.176 23.064 17.424 22.392C18.696 21.696 19.692 20.748 20.412 19.548C21.132 18.324 21.492 16.92 21.492 15.336L24.408 15.12C24.408 17.328 23.928 19.26 22.968 20.916C22.008 22.548 20.676 23.832 18.972 24.768C17.268 25.68 15.312 26.136 13.104 26.136ZM15.3 15.48V12.852H24.408V15.228L22.968 15.48H15.3Z"/>
  </g>
</svg>
